<svg xmlns="http://www.w3.org/2000/svg" width="28px" height="28px" style="opacity: 0.5" xmlns:xlink="http://www.w3.org/1999/xlink" version="1.1" x="0px" y="0px" viewBox="0 0 100 125" enable-background="new 0 0 100 100" xml:space="preserve"><path d="M88.326,76.779c-6.003-4.512-9.448-11.402-9.448-18.908V42.123c0-13.197-8.89-24.352-20.999-27.781v-3.717  c0-4.344-3.532-7.875-7.875-7.875s-7.874,3.531-7.874,7.875v3.717c-12.109,3.439-21,14.584-21,27.781v15.748  c0,7.506-3.445,14.393-9.448,18.908c-0.907,0.678-1.271,1.855-0.917,2.928c0.358,1.07,1.363,1.795,2.491,1.795h23.886  c-0.17,0.861-0.268,1.736-0.268,2.625c0,7.232,5.891,13.123,13.125,13.123s13.125-5.891,13.125-13.123  c0-0.883-0.088-1.764-0.262-2.625h23.885c1.129,0,2.128-0.725,2.486-1.795c0.359-1.072-0.01-2.25-0.912-2.928H88.326z M47.38,10.625  C47.38,9.178,48.559,8,50.004,8c1.446,0,2.625,1.178,2.625,2.625v2.746c-0.866-0.082-1.737-0.123-2.625-0.123  c-0.887,0-1.759,0.041-2.624,0.123V10.625z"/></svg>