<svg xmlns="http://www.w3.org/2000/svg" width="30px" height="30px"  xmlns:xlink="http://www.w3.org/1999/xlink" xmlns:serif="http://www.serif.com/" viewBox="0 0 100 125" version="1.1" xml:space="preserve" style="opacity: 0.5" x="0px" y="0px" fill-rule="evenodd" clip-rule="evenodd" stroke-linejoin="round" stroke-miterlimit="2"><rect serif:id="87 - webhook" x="0" y="0" width="100" height="100" style="" fill="none"/><g serif:id="87 - webhook"><g><path d="M76.272,52.674c-1.476,-0.855 -1.981,-2.747 -1.126,-4.224c0.855,-1.476 2.748,-1.981 4.224,-1.126c6.465,3.743 10.816,10.737 10.816,18.738c-0,11.942 -9.696,21.638 -21.639,21.638c-10.893,0 -19.917,-8.067 -21.418,-18.547l-15.676,0c-1.706,0 -3.091,-1.385 -3.091,-3.091c-0,-1.706 1.385,-3.091 3.091,-3.091l18.507,-0c0.826,-0.011 1.623,0.31 2.212,0.891c0.588,0.581 0.919,1.373 0.919,2.2c0,8.53 6.926,15.456 15.456,15.456c8.531,-0 15.457,-6.926 15.457,-15.456c-0,-5.717 -3.112,-10.713 -7.732,-13.388Z"/><path d="M34.544,33.941c-0.002,1.706 -1.389,3.09 -3.095,3.088c-1.706,-0.003 -3.09,-1.389 -3.087,-3.096c0.009,-7.47 3.89,-14.735 10.819,-18.735c10.343,-5.971 23.587,-2.423 29.559,7.92c5.446,9.434 2.972,21.283 -5.353,27.823l7.838,13.576c0.853,1.477 0.346,3.369 -1.132,4.222c-1.477,0.853 -3.369,0.346 -4.222,-1.131l-9.254,-16.028c-0.422,-0.71 -0.543,-1.561 -0.334,-2.361c0.209,-0.8 0.729,-1.483 1.445,-1.896c7.388,-4.266 9.923,-13.726 5.658,-21.114c-4.266,-7.387 -13.726,-9.922 -21.114,-5.657c-4.951,2.859 -7.721,8.051 -7.728,13.389Z"/><path d="M39.184,79.446c1.479,-0.851 3.37,-0.342 4.222,1.137c0.851,1.478 0.342,3.37 -1.137,4.221c-6.474,3.727 -14.706,3.998 -21.635,-0.002c-10.343,-5.972 -13.892,-19.216 -7.921,-29.559c5.447,-9.434 16.945,-13.216 26.772,-9.276l7.838,-13.575c0.853,-1.478 2.745,-1.985 4.223,-1.132c1.477,0.853 1.984,2.745 1.131,4.223l-9.253,16.027c-0.404,0.722 -1.081,1.251 -1.878,1.47c-0.797,0.22 -1.649,0.11 -2.365,-0.303c-7.388,-4.265 -16.848,-1.73 -21.113,5.657c-4.266,7.388 -1.731,16.848 5.657,21.114c4.951,2.858 10.833,2.661 15.459,-0.002Z"/><circle cx="68.547" cy="66.062" r="10.047"/><path d="M41.3,38.961c-2.773,-4.802 -1.125,-10.952 3.677,-13.724c4.802,-2.773 10.952,-1.125 13.724,3.677c2.772,4.802 1.125,10.952 -3.677,13.724c-4.802,2.773 -10.952,1.125 -13.724,-3.677Z"/><path d="M40.154,71.086c-2.773,4.802 -8.922,6.449 -13.724,3.677c-4.803,-2.773 -6.45,-8.922 -3.678,-13.724c2.773,-4.802 8.922,-6.45 13.724,-3.678c4.802,2.773 6.45,8.922 3.678,13.725Z"/></g></g></svg>